<svg width="880" height="130" viewBox="0 0 880 130" fill="none" xmlns="http://www.w3.org/2000/svg">
<g clip-path="url(#clip0_1_3)">
<path d="M367.9 40.1C364.7 37.3 360.7 35.6 356.1 35.1C354.7 34.9 353.3 34.8 351.7 34.8C350.2 34.8 349.2 34.8 348.6 34.8H329.8V94.8H348.6C349.2 94.8 350.2 94.8 351.7 94.8C353.2 94.8 354.7 94.7 356.1 94.5C360.8 93.9 364.7 92.2 367.9 89.5C371.1 86.7 373.5 83.2 375.2 79C376.8 74.7 377.7 70.1 377.7 64.9C377.7 59.8 376.9 55.1 375.2 50.9C373.6 46.4 371.1 42.8 367.9 40.1ZM367.1 74.3C366.2 77.3 364.8 79.9 362.9 81.9C361 84 358.5 85.3 355.5 85.9C354.5 86.1 353.3 86.2 352 86.2C350.7 86.3 349.6 86.3 348.6 86.3H338.7V42.9H348.6C349.5 42.9 350.6 42.9 352 43C353.3 43 354.5 43.2 355.5 43.4C358.5 44 360.9 45.3 362.9 47.3C364.8 49.3 366.2 51.9 367.1 54.9C368 57.9 368.5 61.2 368.5 64.7C368.4 68 368 71.3 367.1 74.3Z" fill="white"/>
<path d="M396.9 33.8H388.2V42.3H396.9V33.8Z" fill="white"/>
<path d="M396.9 49.6H388.2V94.6H396.9V49.6Z" fill="white"/>
<path d="M440.7 53.7C439.9 52.9 439.1 52.2 438.2 51.5C435.3 49.4 431.7 48.4 427.5 48.4C423.3 48.4 419.6 49.4 416.6 51.5C413.5 53.6 411.2 56.4 409.5 60C407.8 63.6 407 67.6 407 72.1C407 76.6 407.8 80.6 409.5 84.2C411.2 87.8 413.5 90.6 416.5 92.7C419.5 94.8 423.2 95.8 427.3 95.8C431.6 95.8 435.2 94.8 438.1 92.7C438.6 92.3 439.1 91.9 439.6 91.4V95.7C439.6 98.3 439.2 100.4 438.3 102.2C437.4 103.9 436.1 105.3 434.3 106.1C432.6 107 430.4 107.4 428 107.4C426 107.4 424.1 107 422.3 106.1C420.5 105.2 419.1 103.8 418.1 101.9L410.1 106C411.3 108.1 412.9 109.9 414.7 111.4C416.6 112.9 418.6 114 420.9 114.7C423.2 115.4 425.5 115.8 427.9 115.8C431.4 115.8 434.5 115.3 437.3 114.3C440.1 113.3 442.3 111.9 444.1 109.9C445.9 107.9 447.1 105.4 447.7 102.4C447.9 101.3 448.1 100.2 448.2 99.2C448.3 98.1 448.3 97 448.3 95.8V49.6H440.6V53.7H440.7ZM435.4 85.9C433.6 87.3 431.3 87.9 428.4 87.9C425.6 87.9 423.3 87.2 421.5 85.8C419.7 84.4 418.3 82.5 417.4 80.1C416.5 77.7 416 75 416 72C416 69.1 416.5 66.4 417.4 64C418.3 61.6 419.7 59.7 421.5 58.3C423.4 56.9 425.7 56.2 428.6 56.2C431.3 56.2 433.6 56.9 435.3 58.2C437.1 59.5 438.4 61.4 439.2 63.8C440 66.2 440.5 68.9 440.5 72C440.5 75.1 440.1 77.9 439.3 80.2C438.6 82.7 437.2 84.6 435.4 85.9Z" fill="white"/>
<path d="M469.5 49.6H460.8V94.6H469.5V49.6Z" fill="white"/>
<path d="M469.5 33.8H460.8V42.3H469.5V33.8Z" fill="white"/>
<path d="M494.4 37.1H485.7V49.6H477V56.6H485.6V76.9C485.6 79.3 485.6 81.5 485.7 83.5C485.8 85.4 486.3 87.3 487.3 89.2C488.4 91.3 490 92.8 492.1 93.8C494.2 94.8 496.7 95.3 499.4 95.4C502.1 95.5 504.9 95.2 507.7 94.7V87.3C504.8 87.7 502.2 87.8 500 87.6C497.8 87.4 496.2 86.4 495.2 84.7C494.7 83.8 494.4 82.7 494.3 81.3C494.3 80 494.2 78.4 494.2 76.6V56.7H507.6V49.7H494.2V37.1H494.4Z" fill="white"/>
<path d="M552.3 57C550.9 54 548.7 51.9 545.7 50.5C542.7 49.1 539.2 48.4 535.2 48.4C530 48.4 525.9 49.5 522.7 51.8C519.6 54.1 517.5 57.1 516.3 61L524.4 63.5C525.2 61 526.6 59.2 528.5 58.1C530.5 57 532.6 56.5 535 56.5C538.7 56.5 541.4 57.4 542.9 59.1C544.2 60.6 545 62.8 545.1 65.6C543.4 65.8 541.7 66.1 540 66.3C537.2 66.7 534.6 67.1 532 67.5C529.5 67.9 527.2 68.5 525.2 69C522.9 69.7 521 70.7 519.4 71.9C517.8 73.1 516.6 74.6 515.8 76.3C515 78 514.6 80 514.6 82.3C514.6 84.7 515.2 87 516.3 89C517.5 91 519.2 92.7 521.4 93.9C523.6 95.1 526.4 95.8 529.8 95.8C534 95.8 537.5 95 540.4 93.3C542.6 92 544.4 90.3 546 88V94.5H553.7V66.8C553.7 64.9 553.6 63.1 553.5 61.5C553.4 60 553 58.4 552.3 57ZM544.3 79.8C544 81.3 543.3 82.7 542.2 84C541.1 85.4 539.7 86.5 537.9 87.4C536.1 88.3 534 88.7 531.5 88.7C529.6 88.7 528.1 88.4 526.9 87.8C525.7 87.2 524.8 86.4 524.2 85.4C523.6 84.4 523.3 83.3 523.3 82.2C523.3 81 523.6 80 524.1 79.2C524.6 78.4 525.4 77.7 526.3 77.1C527.2 76.5 528.3 76 529.5 75.6C530.9 75.2 532.5 74.8 534.4 74.5C536.2 74.2 538.3 73.9 540.5 73.5C541.9 73.3 543.5 73.1 545.1 72.8C545.1 73.5 545.1 74.4 545 75.3C545 77 544.7 78.5 544.3 79.8Z" fill="white"/>
<path d="M574.2 33.4H565.5V94.6H574.2V33.4Z" fill="white"/>
<path d="M655.1 63.5H634.2V70.5H645.9C645.5 74.2 644.6 77.4 643.1 79.9C641.7 82.5 639.7 84.4 637.2 85.7C634.7 87 631.8 87.7 628.4 87.6C624.2 87.6 620.6 86.6 617.8 84.7C615 82.8 612.8 80.1 611.4 76.7C610 73.3 609.3 69.3 609.3 64.7C609.3 60.1 610 56.1 611.5 52.6C612.9 49.1 615 46.5 617.9 44.5C620.7 42.6 624.3 41.6 628.5 41.7C632.6 41.7 636 42.8 638.7 44.9C641.4 47 643.4 49.9 644.6 53.5L653.4 51.9C651.9 46.1 649 41.6 644.8 38.3C640.6 35 635 33.4 627.9 33.4C622.4 33.4 617.6 34.7 613.4 37.2C609.2 39.7 605.9 43.3 603.6 47.9C601.2 52.6 600.1 58.1 600.1 64.6C600.1 69.5 600.8 73.9 602.2 77.8C603.6 81.7 605.5 84.9 608 87.6C610.5 90.3 613.4 92.3 616.8 93.7C620.2 95.1 623.9 95.8 627.9 95.8C633.7 95.8 638.6 94.6 642.7 92.1C646.8 89.6 649.9 86.2 652 81.8C654.1 77.4 655.2 72.5 655.2 66.9C655.2 66.7 655.2 66.2 655.2 65.3C655.2 64.6 655.1 64 655.1 63.5Z" fill="white"/>
<path d="M683.6 49.4C682.1 49.5 680.7 49.8 679.3 50.2C677.9 50.7 676.6 51.3 675.5 52.1C674.3 52.9 673.3 53.9 672.4 55.1C672 55.6 671.6 56.2 671.3 56.8V49.6H663.6V94.6H672.4V71.9C672.4 70.1 672.6 68.4 672.9 66.8C673.3 65.2 673.9 63.8 674.7 62.4C675.5 61.1 676.6 60 678.1 59.1C679.6 58.1 681.2 57.6 683 57.4C684.8 57.2 686.4 57.3 687.9 57.7V49.5C686.5 49.4 685.1 49.3 683.6 49.4Z" fill="white"/>
<path d="M728.7 57C727.3 54 725.1 51.9 722.1 50.5C719.1 49.1 715.6 48.4 711.6 48.4C706.4 48.4 702.3 49.5 699.1 51.8C696 54.1 693.9 57.1 692.7 61L700.8 63.5C701.6 61 703 59.2 704.9 58.1C706.9 57 709 56.5 711.4 56.5C715.1 56.5 717.8 57.4 719.3 59.1C720.6 60.6 721.4 62.8 721.5 65.6C719.8 65.8 718.1 66.1 716.4 66.3C713.6 66.7 711 67.1 708.4 67.5C705.9 67.9 703.6 68.5 701.6 69C699.3 69.7 697.4 70.7 695.8 71.9C694.2 73.1 693 74.6 692.2 76.3C691.4 78 691 80 691 82.3C691 84.7 691.6 87 692.7 89C693.9 91 695.6 92.7 697.8 93.9C700 95.1 702.8 95.8 706.2 95.8C710.4 95.8 713.9 95 716.8 93.3C719 92 720.8 90.3 722.4 88V94.5H730.1V66.8C730.1 64.9 730 63.1 729.9 61.5C729.9 60 729.4 58.4 728.7 57ZM720.7 79.8C720.4 81.3 719.7 82.7 718.6 84C717.5 85.4 716.1 86.5 714.3 87.4C712.5 88.3 710.4 88.7 707.9 88.7C706 88.7 704.5 88.4 703.3 87.8C702.1 87.2 701.2 86.4 700.6 85.4C700 84.4 699.7 83.3 699.7 82.2C699.7 81 700 80 700.5 79.2C701 78.4 701.8 77.7 702.7 77.1C703.6 76.5 704.7 76 705.9 75.6C707.3 75.2 708.9 74.8 710.8 74.5C712.6 74.2 714.7 73.9 716.9 73.5C718.3 73.3 719.9 73.1 721.5 72.8C721.5 73.5 721.5 74.4 721.4 75.3C721.4 77 721.2 78.5 720.7 79.8Z" fill="white"/>
<path d="M756 83.7L744.1 49.6H735.3L751.6 94.6H760.4L776.7 49.6H768L756 83.7Z" fill="white"/>
<path d="M793.8 33.8H785.1V42.3H793.8V33.8Z" fill="white"/>
<path d="M793.8 49.6H785.1V94.6H793.8V49.6Z" fill="white"/>
<path d="M818.6 37.1H809.9V49.6H801.3V56.6H809.9V76.9C809.9 79.3 809.9 81.5 810 83.5C810.1 85.4 810.6 87.3 811.6 89.2C812.7 91.3 814.3 92.8 816.4 93.8C818.5 94.8 821 95.3 823.7 95.4C826.4 95.5 829.2 95.2 832 94.7V87.3C829.1 87.7 826.5 87.8 824.3 87.6C822.1 87.4 820.5 86.4 819.5 84.7C819 83.8 818.7 82.7 818.6 81.3C818.6 80 818.5 78.4 818.5 76.6V56.7H832V49.7H818.6V37.1Z" fill="white"/>
<path d="M870.6 49.6L857.9 83.4L844.6 49.6H835.5L853.7 94.4L846.3 114.6H854.6L879.4 49.6H870.6Z" fill="white"/>
<path d="M38.8 65C38.8 61.9 36.8 58.6 32.5 58.6C28.2 58.6 26.2 61.9 26.2 65C26.2 68.1 28.2 71.4 32.5 71.4C36.8 71.4 38.8 68.1 38.8 65Z" fill="url(#paint0_linear_1_3)"/>
<path d="M44.3 13.1C48.6 13.1 50.6 9.80001 50.6 6.70001C50.6 3.60001 48.6 0.299988 44.3 0.299988C40 0.299988 38 3.60001 38 6.70001C38 9.80001 39.9 13.1 44.3 13.1Z" fill="url(#paint1_linear_1_3)"/>
<path d="M64.5 116.9C62.6 116.9 60.9 117.6 59.8 118.9C58.8 120.1 58.2 121.6 58.2 123.3C58.2 126.4 60.2 129.7 64.5 129.7C68.9 129.7 70.8 126.4 70.8 123.3C70.8 120.2 68.9 116.9 64.5 116.9Z" fill="url(#paint2_linear_1_3)"/>
<path d="M290.8 65.3C290.7 63.4 290.7 62.1 290.5 61.3H245.8V79.4H265.5C264.2 86 262.1 91.3 259.1 95.5C256.1 99.7 252.4 102.8 248.1 104.7C243.8 106.7 238.9 107.6 233.6 107.5C225.7 107.4 219.2 105.6 213.9 102.1C208.7 98.6 204.7 93.7 202.1 87.4C199.5 81.1 198.2 73.6 198.2 65C198.2 56.4 199.5 48.8 202.1 42.4C204.7 36 208.6 31 213.9 27.5C219.1 24 225.7 22.3 233.6 22.4C241.5 22.5 248 24.7 253.1 29C258.2 33.3 261.9 39.1 264.1 46.4L288.1 43C285 29.4 278.9 18.9 269.7 11.5C260.6 4.1 248 0.399994 232.1 0.399994H107.9C104.9 0.399994 102.3 2.5 101.7 5.5V5.60001H83.7V5.5C83.1 2.6 80.5 0.399994 77.5 0.399994H65.8C61.5 0.399994 59.5 3.69999 59.5 6.79999C59.5 9.89999 61.5 13.2 65.8 13.2H77.5C80.5 13.2 83.1 11.1 83.7 8.10001V8H101.7V8.10001C102.3 11 105 13.2 107.9 13.2H194.9C192.5 15.2 190.2 17.4 188.2 19.8H136.1C133.1 19.8 130.5 21.9 129.9 24.9V25H118.7V24.9C118.1 22 115.4 19.8 112.4 19.8H78.3C74 19.8 72 23.1 72 26.2C72 29.3 74 32.6 78.3 32.6H112.4C115.4 32.6 118 30.5 118.7 27.5V27.4H129.9V27.5C130.5 30.4 133.2 32.6 136.1 32.6H179.9C178.9 34.7 178 36.9 177.2 39.2H88.7C85.7 39.2 83.1 41.3 82.5 44.3V44.4H67V44.3C66.4 41.4 63.7 39.2 60.7 39.2H6.90001C2.60001 39.2 0.600006 42.5 0.600006 45.6C0.600006 48.7 2.60001 52 6.90001 52H60.6C63.6 52 66.2 49.9 66.9 46.9V46.8H82.4V46.9C83 49.8 85.7 52 88.6 52H174.2C173.9 54.2 173.7 56.4 173.5 58.6H107.1C104.1 58.6 101.5 60.7 100.9 63.7V63.8H90.2V63.7C89.6 60.8 86.9 58.6 83.9 58.6H53.4C49.1 58.6 47.1 61.9 47.1 65C47.1 68.1 49.1 71.4 53.4 71.4H84C87 71.4 89.6 69.3 90.3 66.3V66.2H101V66.3C101.6 69.2 104.3 71.4 107.2 71.4H173.6C173.7 73.7 174 75.9 174.3 78H73.3C71.4 78 69.7 78.7 68.6 80C67.6 81.2 67 82.7 67 84.4C67 87.5 69 90.8 73.3 90.8H177.3C177.5 91.5 177.8 92.2 178 92.8C178.6 94.4 179.3 95.9 180 97.4H87.7C84.7 97.4 82.1 99.5 81.4 102.5V102.6H68.5V102.5C67.9 99.6 65.2 97.4 62.2 97.4H34.5C30.2 97.4 28.2 100.7 28.2 103.8C28.2 106.9 30.2 110.2 34.5 110.2H62.3C65.3 110.2 67.9 108.1 68.6 105.1V105H81.5V105.1C82.1 108 84.8 110.2 87.8 110.2H188.3C189.1 111.2 190 112.2 190.9 113.1C192.2 114.4 193.6 115.7 195 116.9H120C117 116.9 114.4 119 113.8 122V122.1H103.1V122C102.5 119.1 99.8 116.9 96.8 116.9H85.1C83.1 116.9 81.5 117.6 80.4 118.9C79.4 120.1 78.8 121.6 78.8 123.3C78.8 126.4 80.8 129.7 85.1 129.7H96.8C99.8 129.7 102.4 127.6 103.1 124.6V124.5H113.8V124.6C114.4 127.5 117.1 129.7 120 129.7H231.6C231.7 129.7 231.9 129.7 232 129.7C244 129.7 254.3 127.1 263.1 121.9C271.9 116.7 278.7 109.5 283.5 100.3C288.3 91.1 290.7 80.5 290.7 68.6C290.8 68.3 290.8 67.2 290.8 65.3Z" fill="url(#paint3_linear_1_3)"/>
</g>
<defs>
<linearGradient id="paint0_linear_1_3" x1="0.3777" y1="65.0046" x2="286.319" y2="65.0046" gradientUnits="userSpaceOnUse">
<stop stop-color="#E1214B"/>
<stop offset="0.1939" stop-color="#CC3333"/>
<stop offset="0.7246" stop-color="#982C6F"/>
<stop offset="1" stop-color="#822989"/>
</linearGradient>
<linearGradient id="paint1_linear_1_3" x1="0.377705" y1="6.7085" x2="286.319" y2="6.7085" gradientUnits="userSpaceOnUse">
<stop stop-color="#E1214B"/>
<stop offset="0.1939" stop-color="#CC3333"/>
<stop offset="0.7246" stop-color="#982C6F"/>
<stop offset="1" stop-color="#822989"/>
</linearGradient>
<linearGradient id="paint2_linear_1_3" x1="0.377683" y1="123.292" x2="286.319" y2="123.292" gradientUnits="userSpaceOnUse">
<stop stop-color="#E1214B"/>
<stop offset="0.1939" stop-color="#CC3333"/>
<stop offset="0.7246" stop-color="#982C6F"/>
<stop offset="1" stop-color="#822989"/>
</linearGradient>
<linearGradient id="paint3_linear_1_3" x1="0.605306" y1="65" x2="286.546" y2="65" gradientUnits="userSpaceOnUse">
<stop stop-color="#E1214B"/>
<stop offset="0.1939" stop-color="#CC3333"/>
<stop offset="0.7246" stop-color="#982C6F"/>
<stop offset="1" stop-color="#822989"/>
</linearGradient>
<clipPath id="clip0_1_3">
<rect width="880" height="130" fill="white"/>
</clipPath>
</defs>
</svg>
